<svg width="95" height="40" viewBox="0 0 95 40" fill="none" xmlns="http://www.w3.org/2000/svg">
<g clip-path="url(#clip0_12379_5241)">
<path d="M6.95146 37.0086C6.95146 37.7914 6.98881 38.7574 7.02617 39.4471H6.20837L6.15284 37.605H6.11549C5.67024 38.4243 4.6485 39.3924 3.05127 39.3924C1.91847 39.3924 0.0244141 38.8344 0.0244141 35.444V30.2471H0.89774V35.2769C0.89774 37.2131 1.51058 38.6106 3.2744 38.6106C4.5748 38.6106 5.52183 37.6982 5.89337 36.804C5.98625 36.5245 6.07813 36.1701 6.07813 35.8167V30.2471H6.95146V37.0086Z" fill="white"/>
<path d="M57.6951 0.853671C56.1837 1.73165 52.6207 3.78127 51.2901 4.54481C50.4793 4.95899 48.6014 5.13924 47.5393 3.70329C47.5221 3.67797 46.1278 1.93114 46.0703 1.86532C46.0309 1.81873 45.1303 0.477975 43.1222 0.436456C42.8264 0.429368 41.3513 0.421266 39.9126 1.24152C37.9993 2.33823 33.5519 4.8881 33.5519 4.8881C33.5499 4.8881 33.5499 4.89013 33.5499 4.89013C31.7205 5.94025 30.2959 6.75646 30.2959 6.75646L31.9789 8.83038C32.7665 9.81063 34.5414 10.5701 36.0811 9.68304C36.0811 9.68304 41.7713 6.37772 41.7915 6.36861C44.253 5.01468 46.1511 5.01468 47.4101 5.51899C48.5419 5.99797 49.5262 7.1919 49.5262 7.1919C49.5262 7.1919 50.8125 8.79089 51.0387 9.07139C51.7706 9.97367 52.9812 9.61924 52.9812 9.61924C52.9812 9.61924 53.4305 9.5676 54.1069 9.16456C54.1069 9.16456 59.6174 5.96051 59.6215 5.95848C61.3712 4.92962 62.9765 4.73722 63.7963 4.81215C66.3658 5.04709 67.1634 6.8476 68.278 8.10228C68.9333 8.84152 69.5249 9.26076 70.4305 9.23949C71.0252 9.22734 71.6976 8.86684 71.7966 8.8L78.3955 4.98025C78.3955 4.98025 77.719 3.95848 76.3318 2.36557C75.091 0.945823 73.7724 1.58886 72.7214 2.11139C72.2802 2.33013 70.6799 3.39747 69.0948 4.14177C67.965 4.67241 66.3436 4.51342 65.4531 3.41063C65.4006 3.34481 63.9629 1.59696 63.8104 1.38228C63.2309 0.653165 62.0981 0 60.6463 0C59.7628 0 58.7623 0.241013 57.6951 0.853671Z" fill="#FFB700"/>
<path d="M0.0808031 15.763C0.0808031 14.6258 0.0606106 13.6709 -0.000976562 12.8202H2.14448L2.24544 14.2825H2.30602C2.79266 13.5099 3.68214 12.5954 5.34196 12.5954C6.63731 12.5954 7.64896 13.3286 8.073 14.4233H8.11541C8.45969 13.8764 8.86253 13.4704 9.32797 13.1848C9.87417 12.8 10.5022 12.5954 11.3129 12.5954C12.9505 12.5954 14.6093 13.7124 14.6093 16.879V22.7038H12.1812V17.2445C12.1812 15.601 11.6148 14.6258 10.4224 14.6258C9.57129 14.6258 8.9433 15.2354 8.68079 15.9463C8.62022 16.1894 8.55964 16.4932 8.55964 16.7767V22.7038H6.13048V16.9802C6.13048 15.601 5.58528 14.6258 4.43128 14.6258C3.4994 14.6258 2.87444 15.3569 2.6503 16.0466C2.54934 16.2916 2.50794 16.5742 2.50794 16.8587V22.7038H0.0808031V15.763Z" fill="white"/>
<path d="M21.6414 17.8739C19.8806 17.8334 18.2016 18.2182 18.2016 19.721C18.2016 20.6942 18.8285 21.1418 19.6181 21.1418C20.6085 21.1418 21.3385 20.4916 21.5606 19.7808C21.6202 19.5985 21.6414 19.3959 21.6414 19.2329V17.8739ZM24.0705 20.3296C24.0705 21.2218 24.1109 22.0937 24.2109 22.7033H21.9644L21.8039 21.6086H21.7413C21.1345 22.3802 20.1037 22.9281 18.8285 22.9281C16.8446 22.9281 15.733 21.4881 15.733 19.9843C15.733 17.4861 17.9381 16.2304 21.5798 16.2506V16.0876C21.5798 15.4375 21.3173 14.363 19.5777 14.363C18.6054 14.363 17.5938 14.6668 16.9254 15.0921L16.4398 13.4699C17.1697 13.0213 18.4449 12.5959 20.0017 12.5959C23.1588 12.5959 24.0705 14.6071 24.0705 16.758V20.3296Z" fill="white"/>
<path d="M25.791 15.763C25.791 14.6258 25.7688 13.6709 25.7092 12.8202H27.893L28.0152 14.3007H28.0758C28.5008 13.5301 29.5741 12.5954 31.2127 12.5954C32.9331 12.5954 34.7141 13.7124 34.7141 16.8375V22.7038H32.2243V17.123C32.2243 15.7013 31.6983 14.6258 30.3424 14.6258C29.3509 14.6258 28.6624 15.3367 28.3989 16.0881C28.3191 16.3109 28.2989 16.6157 28.2989 16.8982V22.7038H25.791V15.763Z" fill="white"/>
<path d="M43.0152 16.9387C43.0152 16.7372 42.994 16.4932 42.9547 16.2906C42.7315 15.3165 41.942 14.5256 40.8092 14.5256C39.211 14.5256 38.3205 15.9463 38.3205 17.7924C38.3205 19.599 39.211 20.9185 40.789 20.9185C41.7996 20.9185 42.6911 20.2289 42.9345 19.1534C42.994 18.9286 43.0152 18.6856 43.0152 18.4213V16.9387ZM45.504 8.8486V19.923C45.504 20.9367 45.5443 22.0354 45.5857 22.7038H43.3585L43.2586 21.1413H43.2182C42.6306 22.238 41.4352 22.9276 39.9995 22.9276C37.6531 22.9276 35.7914 20.9185 35.7914 17.8744C35.7702 14.5661 37.8348 12.5954 40.2024 12.5954C41.5573 12.5954 42.5296 13.1656 42.9738 13.8967H43.0152V8.8486H45.504Z" fill="white"/>
<path d="M49.7777 12.8197H47.2668V22.7033H49.7777V12.8197Z" fill="white"/>
<path d="M51.5365 16.0061C51.5365 14.6673 51.5153 13.7114 51.4557 12.8192H53.6213L53.7001 14.7058H53.7839C54.2685 13.3063 55.4225 12.8192 56.4745 12.8192C56.7168 12.8192 56.8582 12.7777 57.0611 12.8192V15.0116C56.8582 14.9711 56.6361 14.9316 56.3322 14.9316C55.1388 14.9316 54.3291 15.7013 54.106 16.8172C54.0666 17.041 54.0252 17.3053 54.0252 17.5909V22.7038H51.5365V16.0061Z" fill="white"/>
<path d="M60.7231 12.8197H58.2152V22.7033H60.7231V12.8197Z" fill="white"/>
<path d="M10.2932 28.2729V30.2476H12.8374V30.9555H10.2932V36.7661C10.2932 37.9023 10.6465 38.6294 11.5936 38.6294C12.057 38.6294 12.3922 38.5544 12.6143 38.4805L12.7264 39.1691C12.4285 39.2998 12.0206 39.3929 11.4815 39.3929C10.8313 39.3929 10.2932 39.1691 9.95899 38.7408C9.5501 38.2749 9.40168 37.5306 9.40168 36.6172V30.9555H7.89734V30.2476H9.40168V28.6081L10.2932 28.2729Z" fill="white"/>
<path d="M19.4504 37.2694C19.4504 37.9772 19.4878 38.7033 19.5807 39.3929H18.7821L18.6518 38.1078H18.5963C18.1692 38.7964 17.1848 39.5975 15.7552 39.5975C13.9722 39.5975 13.1362 38.3316 13.1362 37.1387C13.1362 35.0719 14.9566 33.8233 18.5781 33.8608V33.637C18.5781 32.7428 18.4105 30.9737 16.2933 30.9919C15.5139 30.9919 14.6961 31.1975 14.0651 31.6633L13.7864 31.0111C14.585 30.4704 15.5876 30.2476 16.3862 30.2476C18.9678 30.2476 19.4504 32.1848 19.4504 33.7858V37.2694ZM18.5781 34.6061C16.6275 34.5494 14.0651 34.8481 14.0651 36.9899C14.0651 38.2749 14.9192 38.8521 15.8481 38.8521C17.3332 38.8521 18.1692 37.9397 18.4842 37.0648C18.5408 36.8785 18.5781 36.6921 18.5781 36.524V34.6061Z" fill="white"/>
<path d="M21.4546 32.5939C21.4546 31.7747 21.4172 30.9038 21.3799 30.196H22.1977L22.2714 32.0349H22.3087C22.8661 31.0101 23.7202 30.2466 25.1872 30.2466C26.432 30.2466 27.3791 31.0668 27.7506 32.203H27.787C28.0475 31.6623 28.3625 31.2714 28.6966 30.9919C29.2731 30.5079 29.886 30.2466 30.833 30.2466C31.7053 30.2466 33.7296 30.7316 33.7296 34.121V39.3929H32.8573V34.2142C32.8573 32.203 32.0769 31.0101 30.5362 31.0101C29.4216 31.0101 28.5301 31.8304 28.1959 32.7803C28.103 33.0405 28.0283 33.3392 28.0283 33.6552V39.3929H27.156V33.8041C27.156 32.1838 26.3755 31.0101 24.9459 31.0101C23.7384 31.0101 22.8105 31.9792 22.4763 33.0223C22.3835 33.2643 22.3279 33.5813 22.3279 33.879V39.3929H21.4546V32.5939Z" fill="white"/>
<path d="M41.309 37.2694C41.309 37.9772 41.3463 38.7033 41.4392 39.3929H40.6406L40.5103 38.1078H40.4548C40.0277 38.7964 39.0434 39.5975 37.6137 39.5975C35.8307 39.5975 34.9948 38.3316 34.9948 37.1387C34.9948 35.0719 36.8151 33.8233 40.4356 33.8608V33.637C40.4356 32.7428 40.269 30.9737 38.1519 30.9919C37.3724 30.9919 36.5546 31.1975 35.9236 31.6633L35.645 31.0111C36.4436 30.4704 37.4461 30.2476 38.2447 30.2476C40.8264 30.2476 41.309 32.1848 41.309 33.7858V37.2694ZM40.4356 34.6061C38.486 34.5494 35.9236 34.8481 35.9236 36.9899C35.9236 38.2749 36.7778 38.8521 37.7056 38.8521C39.1918 38.8521 40.0277 37.9397 40.3437 37.0648C40.3993 36.8785 40.4356 36.6921 40.4356 36.524V34.6061Z" fill="white"/>
<path d="M50.7589 30.9732H47.4181V39.4106H46.5448V30.9732H45.2635V30.2653H46.5448V29.1868C46.5448 26.8962 47.6039 25.2759 49.9623 25.2759C50.7236 25.2759 51.5959 25.5544 52.0048 25.8906L51.5959 26.5792C51.2244 26.2997 50.5378 26.0202 49.7948 26.0202C47.938 26.0202 47.4181 27.5109 47.4181 29.2435V30.2653H50.7589" fill="white"/>
<path d="M54.5906 32.5939C54.5906 31.7747 54.5532 30.922 54.5159 30.2152H55.3337L55.4074 32.0724H55.4447C55.9273 31.0668 57.042 30.2466 58.5089 30.2466C59.3631 30.2466 61.6105 30.6749 61.6105 34.0278V39.3929H60.7372V34.1028C60.7372 32.4825 60.1062 31.0101 58.2676 31.0101C57.0046 31.0101 55.9465 31.9043 55.5931 33.0597C55.5194 33.2835 55.4629 33.5813 55.4629 33.8607V39.3929H54.5906V32.5939Z" fill="white"/>
<path d="M69.1846 37.2694C69.1846 37.9772 69.222 38.7033 69.3149 39.3929H68.5163L68.386 38.1078H68.3305C67.9034 38.7964 66.919 39.5975 65.4894 39.5975C63.7064 39.5975 62.8704 38.3316 62.8704 37.1387C62.8704 35.0719 64.6908 33.8233 68.3123 33.8608V33.637C68.3123 32.7428 68.1447 30.9737 66.0275 30.9919C65.2481 30.9919 64.4303 31.1975 63.7993 31.6633L63.5206 31.0111C64.3192 30.4704 65.3218 30.2476 66.1204 30.2476C68.702 30.2476 69.1846 32.1848 69.1846 33.7858V37.2694ZM68.3123 34.6061C66.3617 34.5494 63.7993 34.8481 63.7993 36.9899C63.7993 38.2749 64.6534 38.8521 65.5823 38.8521C67.0674 38.8521 67.9034 37.9397 68.2194 37.0648C68.275 36.8785 68.3123 36.6921 68.3123 36.524V34.6061Z" fill="white"/>
<path d="M71.1939 32.5939C71.1939 31.7747 71.1566 30.922 71.1192 30.2142H71.937L72.0107 32.0724H72.0481C72.5307 31.0668 73.6453 30.2466 75.1123 30.2466C75.9664 30.2466 78.2138 30.6749 78.2138 34.0278V39.3929H77.3405V34.1028C77.3405 32.4825 76.7095 31.0101 74.871 31.0101C73.6079 31.0101 72.5498 31.9043 72.1965 33.0597C72.1228 33.2835 72.0662 33.5813 72.0662 33.8608V39.3929H71.1939V32.5939Z" fill="white"/>
<path d="M86.4039 39.0015C86.0141 39.2071 85.0853 39.598 83.8041 39.598C81.2224 39.598 79.5142 37.7164 79.5142 35.0157C79.5142 32.1843 81.4456 30.2471 84.1201 30.2471C85.2155 30.2471 86.107 30.564 86.4594 30.8061L86.1444 31.5331C85.6981 31.2901 85.0116 31.0106 84.0272 31.0106C81.6313 31.0106 80.4057 32.8547 80.4057 34.96C80.4057 37.2881 81.8726 38.8152 83.9343 38.8152C84.9924 38.8152 85.68 38.5174 86.1626 38.3129L86.4039 39.0015Z" fill="white"/>
<path d="M87.777 34.8289C87.777 37.6977 89.3369 38.8147 91.1754 38.8147C92.4758 38.8147 93.1442 38.5544 93.645 38.3124L93.8681 39.0203C93.5339 39.2066 92.6243 39.5975 91.0644 39.5975C88.5009 39.5975 86.9047 37.716 86.9047 35.0901C86.9047 32.1099 88.613 30.2466 90.915 30.2466C93.8308 30.2466 94.3881 33.0041 94.3881 34.2891C94.3881 34.5311 94.3881 34.68 94.3507 34.8289H87.777ZM93.4592 34.121C93.4784 32.8734 92.9584 30.9737 90.8039 30.9737C88.8351 30.9737 87.981 32.7428 87.8326 34.121H93.4592Z" fill="white"/>
<path d="M52.8569 30.1858H51.9654V39.3929H52.8569V30.1858Z" fill="white"/>
</g>
<defs>
<clipPath id="clip0_12379_5241">
<rect width="94.4" height="40" fill="white"/>
</clipPath>
</defs>
</svg>
